<?xml version="1.0" standalone="no"?>
<!DOCTYPE svg PUBLIC "-//W3C//DTD SVG 20010904//EN"
 "http://www.w3.org/TR/2001/REC-SVG-20010904/DTD/svg10.dtd">
<svg version="1.0" xmlns="http://www.w3.org/2000/svg"
 width="700.000000pt" height="700.000000pt" viewBox="0 0 700.000000 700.000000"
 preserveAspectRatio="xMidYMid meet">
<metadata>
Created by potrace 1.14, written by Peter Selinger 2001-2017
</metadata>
<g transform="translate(0.000000,700.000000) scale(0.100000,-0.100000)"
fill="#000000" stroke="none">
<path d="M425 6986 c-111 -27 -228 -99 -298 -185 -46 -56 -101 -168 -116 -236
-7 -35 -10 -968 -8 -3090 l2 -3040 22 -59 c71 -188 232 -330 413 -365 79 -15
6056 -14 6125 1 115 24 238 100 311 192 41 51 96 155 111 211 4 17 9 1396 10
3065 2 2494 0 3045 -11 3090 -25 103 -77 199 -147 269 -42 41 -143 111 -161
111 -8 0 -19 5 -24 10 -39 39 -23 38 -3159 38 -2341 0 -3031 -2 -3070 -12z
m1270 -946 c162 -37 312 -156 394 -312 51 -97 71 -189 67 -303 -7 -159 -66
-294 -177 -405 -52 -52 -164 -128 -199 -136 -3 0 -12 -4 -20 -7 -90 -39 -280
-44 -387 -9 -248 79 -419 302 -427 556 -6 187 47 319 179 451 73 73 144 119
230 151 86 31 238 37 340 14z m1921 7 c139 -34 237 -90 326 -186 69 -74 129
-183 148 -266 19 -80 20 -197 3 -267 -8 -35 -16 -68 -17 -74 -5 -29 -70 -144
-104 -186 -129 -154 -300 -232 -495 -223 -111 4 -171 20 -265 70 -122 64 -226
181 -280 315 -29 71 -32 88 -39 190 -22 347 266 643 617 634 47 -1 94 -4 106
-7z m1975 -7 c171 -46 313 -158 393 -309 50 -96 69 -171 69 -276 0 -175 -54
-306 -178 -430 -131 -132 -272 -188 -455 -181 -251 11 -452 159 -546 401 -25
62 -28 84 -28 195 -1 106 3 136 23 198 69 210 260 375 476 411 64 11 190 6
246 -9z m-3910 -1945 c219 -53 378 -198 450 -411 32 -96 33 -258 2 -359 -112
-360 -512 -532 -853 -367 -89 44 -209 157 -257 242 -171 303 -54 689 256 845
116 58 283 79 402 50z m1999 -13 c212 -69 385 -264 418 -472 8 -49 7 -189 -1
-227 -60 -279 -306 -484 -581 -487 -107 0 -152 6 -225 33 -175 65 -316 215
-374 396 -17 53 -22 94 -22 170 1 55 3 111 7 125 3 14 9 39 14 55 10 42 59
141 88 180 91 119 207 198 346 236 88 24 241 20 330 -9z m1895 14 c33 -7 75
-20 92 -30 18 -9 34 -15 36 -14 8 6 135 -83 175 -123 278 -277 217 -752 -124
-951 -157 -92 -352 -110 -519 -47 -200 75 -350 257 -390 474 -7 36 -7 149 0
188 3 15 7 37 9 50 6 36 50 139 81 187 35 56 128 149 184 184 131 83 306 115
456 82z m-3950 -1940 c235 -26 436 -197 511 -434 21 -65 25 -223 9 -299 -60
-278 -310 -476 -600 -476 -324 0 -596 267 -599 588 -1 132 6 165 59 280 88
190 279 325 485 342 36 3 67 7 69 9 2 2 7 2 10 0 3 -2 29 -7 56 -10z m2095
-36 c239 -94 396 -337 384 -594 -11 -239 -153 -441 -377 -534 -169 -71 -367
-58 -531 34 -127 71 -244 224 -285 371 -35 129 -21 285 37 413 86 190 282 327
497 349 72 8 205 -11 275 -39z m1879 23 c167 -44 325 -173 392 -321 50 -110
63 -165 62 -278 0 -151 -63 -302 -172 -413 -175 -178 -424 -233 -657 -144
-230 88 -389 328 -383 576 4 167 61 299 179 417 81 81 176 137 280 165 69 18
225 17 299 -2z"/>
</g>
</svg>
